<svg width="2559" height="1570" viewBox="0 0 2559 1570" fill="none" xmlns="http://www.w3.org/2000/svg">
<path fill-rule="evenodd" clip-rule="evenodd" d="M0 130.046C0 130.046 503.459 310.437 975 310.437C1446.54 310.437 1688.44 65.0778 1967 12.4335C2245.56 -40.2109 2560 130.046 2560 130.046V1570H0V130.046Z" fill="#880E4F"/>
<mask id="mask0_0_939" style="mask-type:luminance" maskUnits="userSpaceOnUse" x="0" y="2" width="2560" height="1568">
<path fill-rule="evenodd" clip-rule="evenodd" d="M0 130.046C0 130.046 503.459 310.437 975 310.437C1446.54 310.437 1688.44 65.0778 1967 12.4335C2245.56 -40.2109 2560 130.046 2560 130.046V1570H0V130.046Z" fill="white"/>
</mask>
<g mask="url(#mask0_0_939)">
<path fill-rule="evenodd" clip-rule="evenodd" d="M-277 109.794L528.395 109.794C528.395 109.794 417 109.794 557 340.618C638.574 475.114 768 623.33 768 761.819C768 916.102 674.878 1012.43 627.5 1201.36C581.869 1383.32 734.65 1577.79 734.65 1577.79H-277V109.794Z" fill="#E91E63"/>
<path d="M2249.86 1591.46C2250.15 1591 2250.46 1590.52 2250.79 1590.01C2253.72 1585.49 2257.99 1578.84 2263.37 1570.29C2274.12 1553.19 2289.28 1528.51 2306.96 1498.14C2342.3 1437.41 2387.7 1353.9 2427.88 1262.87C2468.05 1171.87 2503.08 1073.17 2517.58 982.072C2532.07 891.084 2526.18 806.928 2483.56 745.736C2459.26 710.85 2433.53 678.706 2408.64 647.633L2408.35 647.264C2383.53 616.286 2359.59 586.391 2338.56 555.726C2296.39 494.224 2266.14 429.916 2264.72 348.637C2263.14 258.087 2298.34 191.513 2339.96 118.867C2342.43 114.545 2344.93 110.201 2347.44 105.831C2387.15 36.8035 2430.73 -38.964 2451.53 -145.715C2472.9 -255.396 2444.51 -373.401 2411.02 -463.665C2394.26 -508.856 2376.18 -547.226 2362.28 -574.301C2355.33 -587.841 2349.42 -598.563 2345.25 -605.907C2344.08 -607.969 2343.04 -609.764 2342.16 -611.282L3352.96 -628.925L3206.31 1697.49L2249.86 1591.46Z" stroke="url(#paint0_linear_0_939)" stroke-width="8"/>
</g>
<defs>
<linearGradient id="paint0_linear_0_939" x1="1674.79" y1="504.842" x2="2873.02" y2="1916.32" gradientUnits="userSpaceOnUse">
<stop stop-color="#E91E63"/>
<stop offset="1" stop-color="#304FFE"/>
</linearGradient>
</defs>
</svg>
