<svg width="412" height="475" viewBox="0 0 412 475" fill="none" xmlns="http://www.w3.org/2000/svg">
<g id="Group 2">
<path id="Combined Shape" fill-rule="evenodd" clip-rule="evenodd" d="M114.569 2.71831C112.794 4.83368 113.07 7.98746 115.186 9.76247L196.386 77.898C196.584 78.0641 196.792 78.2123 197.006 78.3427C197.037 79.2656 197.193 80.1569 197.458 81H58C25.9675 81 0 106.967 0 139V394C0 426.033 25.9675 452 58 452H125.739L109.83 465.349C107.715 467.124 107.439 470.278 109.214 472.394C110.989 474.509 114.143 474.785 116.258 473.01L141.297 452H270.992L296.031 473.01C298.146 474.785 301.3 474.509 303.075 472.394C304.85 470.278 304.574 467.124 302.459 465.349L286.55 452H354C386.033 452 412 426.033 412 394V139C412 106.967 386.033 81 354 81H216.542C216.84 80.0529 217 79.0452 217 78C217 77.8596 216.997 77.7199 216.991 77.5809L297.814 9.76247C299.93 7.98746 300.206 4.83368 298.431 2.71831C296.656 0.602934 293.502 0.327015 291.386 2.10202L211.55 69.0927C210.185 68.3941 208.639 68 207 68C205.116 68 203.353 68.5212 201.849 69.4272L121.614 2.10202C119.498 0.327015 116.344 0.602934 114.569 2.71831Z" fill="url(#paint0_linear_0_50)"/>
</g>
<defs>
<linearGradient id="paint0_linear_0_50" x1="462.537" y1="237.136" x2="145.161" y2="-40.7537" gradientUnits="userSpaceOnUse">
<stop stop-color="#F8BBD0"/>
<stop offset="1" stop-color="#C5CAE9"/>
</linearGradient>
</defs>
</svg>
