<svg width="112" height="113" viewBox="0 0 112 113" fill="none" xmlns="http://www.w3.org/2000/svg">
<path fill-rule="evenodd" clip-rule="evenodd" d="M93.0708 56.9268C93.2458 55.3373 93.3333 53.9833 93.3333 52.8648C93.3333 47.0956 92.3708 47.0662 88.6667 47.0662H66.6458C68.775 43.534 70 39.8841 70 36.1753C70 25.0195 53.2875 19.5741 53.2875 10.2727C53.2875 6.82886 54.775 4.00313 56 0C48.2708 2.06043 42.175 9.86064 42.175 18.1318C42.175 32.3488 58.5958 32.4665 58.5958 43.0925C58.5958 44.417 58.1875 45.5944 57.9833 47.0662H41.6792C41.9125 46.1831 42.0583 45.2412 42.0583 44.3287C42.0583 37.6176 30.6542 34.3503 30.6542 28.7872C30.6542 26.7268 30.9458 25.0195 31.5875 22.6059C27.825 24.1071 23.3333 28.4928 23.3333 33.4379C23.3333 41.297 32.6375 42.0623 34.0667 47.0662H4.66667C0.9625 47.0662 0 47.0956 0 52.8648C0 58.634 2.24583 70.9083 8.25417 85.5374C14.2625 100.166 21.2042 106.613 26.1042 110.91L26.1333 110.851C27.6208 112.205 29.575 113 31.7333 113H61.6C63.7583 113 65.7125 112.205 67.2 110.851L67.2292 110.91C69.8542 108.614 73.0625 105.671 76.3875 101.226C77.7583 101.815 79.2458 102.315 80.8792 102.698C83.3292 103.287 85.7792 103.581 88.1125 103.581C95.1125 103.581 101.412 100.873 105.846 95.9867C109.754 91.6892 112 85.8612 112 80.0331C112 68.583 103.833 59.0167 93.0708 56.9268ZM90.6736 98C87.6875 98 85.2569 97.571 83 96.4984C84.3889 93.6383 85.7431 90.8139 87.0625 87.5247C90.5694 78.8013 93 70.7213 94.5625 64C102.201 65.5373 108 72.5089 108 80.8391C108 88.9548 102.028 98 90.6736 98Z" fill="white"/>
</svg>
